<svg xmlns="http://www.w3.org/2000/svg" version="1.0" viewBox="0 0 512 512">
  <path d="M176 1.5c-17.7 3.1-29.6 9.6-41.3 22.6-22.7 25-33.8 72.3-32.4 137.1.6 26.7 2.4 38.1 9.8 59.3 16.3 47.4 55.7 94.8 106.9 128.9 3 2 5.2 3.6 4.9 3.6-.9 0-25.9-10.3-51.8-21.4l-22.4-9.5-5.1 2.6c-36.1 18.1-68.9 63.5-78.3 108.3-2.5 12-2.3 32.1.4 41.2 5.4 18.2 17.6 29.2 38.8 35 11.3 3 33.6 3.1 44.7 0 26.4-7.2 49-23.6 70.4-51.2 29.3-37.7 54.4-97.5 72.4-172.3 18.6-78 19.4-143 2.3-191.7-16.4-46.6-51.8-81.1-94.5-92-8.7-2.3-14.1-2.4-24.8-.5zm246.3 143c-10.9 3-20.6 9.8-33.4 23.3-21.6 22.7-46 61.8-71 113.7-11.6 24.3-36.3 78.9-43.9 97.5-20.5 49.5-27.8 85.2-21 102.5 5.2 13.4 19 17.2 34.7 9.5 22.1-10.9 44.1-49.4 55.9-97.5 2.8-11.5 6.4-32.4 6.4-37.5.1-2.9 1.3-4.9 7.7-12 38.3-42.9 67.2-89.4 81.3-130.8 6.3-18.8 8.3-28.9 8.4-43.2.1-11.5-.1-12.9-2.4-17.4-1.4-2.8-3.6-5.8-5-6.8-3.5-2.5-11.5-3.1-17.7-1.3z"/>
</svg>
